<mxfile host="app.diagrams.net" modified="2023-01-22T19:12:06.104Z" agent="5.0 (Windows NT 10.0; Win64; x64) AppleWebKit/537.36 (KHTML, like Gecko) Chrome/109.0.0.0 Safari/537.36" etag="0_3VFN-4iaSbzFJhW1Tk" version="20.7.4" type="github">
  <diagram id="SUC0Z8MnFJsgT6DpImHR" name="Page-1">
    <mxGraphModel dx="2569" dy="721" grid="1" gridSize="10" guides="1" tooltips="1" connect="1" arrows="1" fold="1" page="1" pageScale="1" pageWidth="1169" pageHeight="827" math="0" shadow="0">
      <root>
        <mxCell id="0" />
        <mxCell id="1" parent="0" />
        <mxCell id="g6beEZowlGTFlbzo3jG1-1" value="L&#39;utilisateur entre au moins 3 caractères dans la barre de recherche principale" style="rounded=0;whiteSpace=wrap;html=1;fillColor=#dae8fc;strokeColor=#6c8ebf;" parent="1" vertex="1">
          <mxGeometry x="-1090" y="80" width="240" height="80" as="geometry" />
        </mxCell>
        <mxCell id="g6beEZowlGTFlbzo3jG1-4" value="Le mot figure &lt;br&gt;dans le titre, les ingrédients ou &lt;br&gt;la description&amp;nbsp;?" style="ellipse;whiteSpace=wrap;html=1;fillColor=#f8cecc;strokeColor=#b85450;" parent="1" vertex="1">
          <mxGeometry x="-1030" y="400" width="120" height="120" as="geometry" />
        </mxCell>
        <mxCell id="g6beEZowlGTFlbzo3jG1-5" value="" style="endArrow=classic;html=1;rounded=0;" parent="1" edge="1">
          <mxGeometry width="50" height="50" relative="1" as="geometry">
            <mxPoint x="-910" y="460" as="sourcePoint" />
            <mxPoint x="-830" y="460.5" as="targetPoint" />
          </mxGeometry>
        </mxCell>
        <mxCell id="g6beEZowlGTFlbzo3jG1-6" value="" style="endArrow=classic;html=1;rounded=0;" parent="1" edge="1">
          <mxGeometry width="50" height="50" relative="1" as="geometry">
            <mxPoint x="-970.5" y="520" as="sourcePoint" />
            <mxPoint x="-970.5" y="600" as="targetPoint" />
          </mxGeometry>
        </mxCell>
        <mxCell id="g6beEZowlGTFlbzo3jG1-7" value="" style="endArrow=classic;html=1;rounded=0;" parent="1" edge="1">
          <mxGeometry width="50" height="50" relative="1" as="geometry">
            <mxPoint x="-970.4" y="160" as="sourcePoint" />
            <mxPoint x="-970.4" y="240" as="targetPoint" />
          </mxGeometry>
        </mxCell>
        <mxCell id="g6beEZowlGTFlbzo3jG1-8" value="" style="endArrow=classic;html=1;rounded=0;" parent="1" edge="1">
          <mxGeometry x="-1" y="-252" width="50" height="50" relative="1" as="geometry">
            <mxPoint x="-970.4" y="320" as="sourcePoint" />
            <mxPoint x="-970.4" y="400" as="targetPoint" />
            <mxPoint x="223" y="-250" as="offset" />
          </mxGeometry>
        </mxCell>
        <mxCell id="g6beEZowlGTFlbzo3jG1-9" value="La recette est affichée" style="shape=hexagon;perimeter=hexagonPerimeter2;whiteSpace=wrap;html=1;fixedSize=1;fillColor=#ffe6cc;strokeColor=#d79b00;" parent="1" vertex="1">
          <mxGeometry x="-1065" y="600" width="190" height="80" as="geometry" />
        </mxCell>
        <mxCell id="g6beEZowlGTFlbzo3jG1-11" value="oui" style="text;html=1;strokeColor=none;fillColor=none;align=center;verticalAlign=middle;whiteSpace=wrap;rounded=0;fontStyle=1;fontSize=14;" parent="1" vertex="1">
          <mxGeometry x="-1050" y="540" width="60" height="30" as="geometry" />
        </mxCell>
        <mxCell id="g6beEZowlGTFlbzo3jG1-12" value="&lt;font style=&quot;font-size: 14px;&quot;&gt;non&lt;/font&gt;" style="text;html=1;strokeColor=none;fillColor=none;align=center;verticalAlign=middle;whiteSpace=wrap;rounded=0;fontStyle=1" parent="1" vertex="1">
          <mxGeometry x="-900" y="420" width="60" height="30" as="geometry" />
        </mxCell>
        <mxCell id="g6beEZowlGTFlbzo3jG1-13" value="L&#39;utilisateur clique sur un filtre pour &lt;br&gt;affiner sa recherche ?" style="rounded=0;whiteSpace=wrap;html=1;fillColor=#dae8fc;strokeColor=#6c8ebf;" parent="1" vertex="1">
          <mxGeometry x="-1090" y="920" width="240" height="80" as="geometry" />
        </mxCell>
        <mxCell id="g6beEZowlGTFlbzo3jG1-14" value="La liste des filtres est actualisée&amp;nbsp;" style="shape=hexagon;perimeter=hexagonPerimeter2;whiteSpace=wrap;html=1;fixedSize=1;fillColor=#ffe6cc;strokeColor=#d79b00;" parent="1" vertex="1">
          <mxGeometry x="-1070" y="760" width="190" height="80" as="geometry" />
        </mxCell>
        <mxCell id="g6beEZowlGTFlbzo3jG1-17" value="Recherche le mot dans le titre, les ingrédients, ou la description &lt;br&gt;de &lt;b&gt;chaque recette&lt;/b&gt;" style="rounded=1;whiteSpace=wrap;html=1;fillColor=#d5e8d4;strokeColor=#82b366;" parent="1" vertex="1">
          <mxGeometry x="-1090" y="240" width="240" height="80" as="geometry" />
        </mxCell>
        <mxCell id="g6beEZowlGTFlbzo3jG1-18" value="" style="endArrow=classic;html=1;rounded=0;" parent="1" edge="1">
          <mxGeometry x="-1" y="-95" width="50" height="50" relative="1" as="geometry">
            <mxPoint x="-970.5" y="680" as="sourcePoint" />
            <mxPoint x="-970.5" y="760" as="targetPoint" />
            <mxPoint as="offset" />
          </mxGeometry>
        </mxCell>
        <mxCell id="nc0PrxtWMejWjlRWJBwD-1" value="La recette n&#39;est pas affichée" style="shape=hexagon;perimeter=hexagonPerimeter2;whiteSpace=wrap;html=1;fixedSize=1;fillColor=#ffe6cc;strokeColor=#d79b00;" parent="1" vertex="1">
          <mxGeometry x="-830" y="420" width="210" height="80" as="geometry" />
        </mxCell>
        <mxCell id="nc0PrxtWMejWjlRWJBwD-4" value="" style="endArrow=classic;html=1;rounded=0;" parent="1" edge="1">
          <mxGeometry width="50" height="50" relative="1" as="geometry">
            <mxPoint x="-970.4999999999999" y="840" as="sourcePoint" />
            <mxPoint x="-970.4999999999999" y="920" as="targetPoint" />
          </mxGeometry>
        </mxCell>
        <mxCell id="nc0PrxtWMejWjlRWJBwD-17" value="Recherche des recettes contenant le tag parmi les recettes affichées" style="rounded=1;whiteSpace=wrap;html=1;fillColor=#d5e8d4;strokeColor=#82b366;" parent="1" vertex="1">
          <mxGeometry x="-1090" y="1241" width="240" height="80" as="geometry" />
        </mxCell>
        <mxCell id="nc0PrxtWMejWjlRWJBwD-18" value="Le filtre est affiché sous &lt;br&gt;forme de tag" style="shape=hexagon;perimeter=hexagonPerimeter2;whiteSpace=wrap;html=1;fixedSize=1;fillColor=#ffe6cc;strokeColor=#d79b00;" parent="1" vertex="1">
          <mxGeometry x="-1065" y="1080" width="190" height="80" as="geometry" />
        </mxCell>
        <mxCell id="nc0PrxtWMejWjlRWJBwD-19" value="" style="endArrow=classic;html=1;rounded=0;" parent="1" edge="1">
          <mxGeometry width="50" height="50" relative="1" as="geometry">
            <mxPoint x="-850" y="959.5" as="sourcePoint" />
            <mxPoint x="-770" y="960" as="targetPoint" />
          </mxGeometry>
        </mxCell>
        <mxCell id="nc0PrxtWMejWjlRWJBwD-20" value="" style="endArrow=classic;html=1;rounded=0;" parent="1" edge="1">
          <mxGeometry x="1" y="-112" width="50" height="50" relative="1" as="geometry">
            <mxPoint x="-970.4000000000002" y="1000" as="sourcePoint" />
            <mxPoint x="-970.4000000000002" y="1080" as="targetPoint" />
            <mxPoint x="93" y="110" as="offset" />
          </mxGeometry>
        </mxCell>
        <mxCell id="nc0PrxtWMejWjlRWJBwD-23" value="" style="endArrow=classic;html=1;rounded=0;entryX=0;entryY=0.5;entryDx=0;entryDy=0;" parent="1" target="g6beEZowlGTFlbzo3jG1-9" edge="1">
          <mxGeometry width="50" height="50" relative="1" as="geometry">
            <mxPoint x="-1159.9999999999998" y="639.64" as="sourcePoint" />
            <mxPoint x="-1079.9999999999998" y="640.14" as="targetPoint" />
          </mxGeometry>
        </mxCell>
        <mxCell id="nc0PrxtWMejWjlRWJBwD-24" value="" style="endArrow=none;html=1;rounded=0;fontSize=14;" parent="1" edge="1">
          <mxGeometry width="50" height="50" relative="1" as="geometry">
            <mxPoint x="-1160" y="1600" as="sourcePoint" />
            <mxPoint x="-1160" y="640" as="targetPoint" />
          </mxGeometry>
        </mxCell>
        <mxCell id="nc0PrxtWMejWjlRWJBwD-25" value="" style="endArrow=none;html=1;rounded=0;fontSize=14;" parent="1" edge="1">
          <mxGeometry width="50" height="50" relative="1" as="geometry">
            <mxPoint x="-1160" y="1600" as="sourcePoint" />
            <mxPoint x="-970" y="1600" as="targetPoint" />
          </mxGeometry>
        </mxCell>
        <mxCell id="nc0PrxtWMejWjlRWJBwD-27" value="Le tag figure dans &lt;br&gt;le titre, &lt;br&gt;les ingrédients, ou &lt;br&gt;la description ?&amp;nbsp;" style="ellipse;whiteSpace=wrap;html=1;fillColor=#f8cecc;strokeColor=#b85450;" parent="1" vertex="1">
          <mxGeometry x="-1030" y="1400" width="120" height="120" as="geometry" />
        </mxCell>
        <mxCell id="nc0PrxtWMejWjlRWJBwD-28" value="" style="endArrow=classic;html=1;rounded=0;" parent="1" edge="1">
          <mxGeometry x="-1" y="-252" width="50" height="50" relative="1" as="geometry">
            <mxPoint x="-970.4" y="1321" as="sourcePoint" />
            <mxPoint x="-970.4" y="1401" as="targetPoint" />
            <mxPoint x="223" y="-250" as="offset" />
          </mxGeometry>
        </mxCell>
        <mxCell id="nc0PrxtWMejWjlRWJBwD-29" value="" style="endArrow=classic;html=1;rounded=0;" parent="1" edge="1">
          <mxGeometry width="50" height="50" relative="1" as="geometry">
            <mxPoint x="-910" y="1459.66" as="sourcePoint" />
            <mxPoint x="-830" y="1460.1600000000003" as="targetPoint" />
          </mxGeometry>
        </mxCell>
        <mxCell id="nc0PrxtWMejWjlRWJBwD-30" value="&lt;font style=&quot;font-size: 14px;&quot;&gt;non&lt;/font&gt;" style="text;html=1;strokeColor=none;fillColor=none;align=center;verticalAlign=middle;whiteSpace=wrap;rounded=0;fontStyle=1" parent="1" vertex="1">
          <mxGeometry x="-900" y="1430" width="60" height="30" as="geometry" />
        </mxCell>
        <mxCell id="nc0PrxtWMejWjlRWJBwD-32" value="La recette est&amp;nbsp;supprimée du &lt;br&gt;tableau des recettes" style="shape=hexagon;perimeter=hexagonPerimeter2;whiteSpace=wrap;html=1;fixedSize=1;fillColor=#ffe6cc;strokeColor=#d79b00;" parent="1" vertex="1">
          <mxGeometry x="-830" y="1420" width="190" height="80" as="geometry" />
        </mxCell>
        <mxCell id="nc0PrxtWMejWjlRWJBwD-33" value="oui" style="text;html=1;strokeColor=none;fillColor=none;align=center;verticalAlign=middle;whiteSpace=wrap;rounded=0;fontStyle=1;fontSize=14;" parent="1" vertex="1">
          <mxGeometry x="-1030" y="1530" width="60" height="30" as="geometry" />
        </mxCell>
        <mxCell id="nc0PrxtWMejWjlRWJBwD-34" value="" style="endArrow=none;html=1;rounded=0;fontSize=14;" parent="1" edge="1">
          <mxGeometry x="-1" y="-63" width="50" height="50" relative="1" as="geometry">
            <mxPoint x="-970.32" y="1520" as="sourcePoint" />
            <mxPoint x="-970.32" y="1600" as="targetPoint" />
            <mxPoint x="43" y="-60" as="offset" />
          </mxGeometry>
        </mxCell>
        <mxCell id="nc0PrxtWMejWjlRWJBwD-35" value="&lt;font style=&quot;font-size: 14px;&quot;&gt;non&lt;/font&gt;" style="text;html=1;strokeColor=none;fillColor=none;align=center;verticalAlign=middle;whiteSpace=wrap;rounded=0;fontStyle=1" parent="1" vertex="1">
          <mxGeometry x="-840" y="920" width="60" height="30" as="geometry" />
        </mxCell>
        <mxCell id="nc0PrxtWMejWjlRWJBwD-36" value="oui" style="text;html=1;strokeColor=none;fillColor=none;align=center;verticalAlign=middle;whiteSpace=wrap;rounded=0;fontStyle=1;fontSize=14;" parent="1" vertex="1">
          <mxGeometry x="-1050" y="1020" width="60" height="30" as="geometry" />
        </mxCell>
        <mxCell id="nc0PrxtWMejWjlRWJBwD-37" value="" style="endArrow=classic;html=1;rounded=0;" parent="1" edge="1">
          <mxGeometry x="-1" y="-252" width="50" height="50" relative="1" as="geometry">
            <mxPoint x="-970.4" y="1161" as="sourcePoint" />
            <mxPoint x="-970.4" y="1241" as="targetPoint" />
            <mxPoint x="223" y="-250" as="offset" />
          </mxGeometry>
        </mxCell>
        <mxCell id="nc0PrxtWMejWjlRWJBwD-38" value="Les recettes affichées restent &lt;br&gt;telles quelles" style="shape=hexagon;perimeter=hexagonPerimeter2;whiteSpace=wrap;html=1;fixedSize=1;fillColor=#ffe6cc;strokeColor=#d79b00;" parent="1" vertex="1">
          <mxGeometry x="-770" y="920" width="190" height="80" as="geometry" />
        </mxCell>
      </root>
    </mxGraphModel>
  </diagram>
</mxfile>
